<?xml version="1.0" encoding="utf-8"?>
<!-- Generator: Adobe Illustrator 19.1.0, SVG Export Plug-In . SVG Version: 6.00 Build 0)  -->
<!DOCTYPE svg PUBLIC "-//W3C//DTD SVG 1.1//EN" "http://www.w3.org/Graphics/SVG/1.1/DTD/svg11.dtd">
<svg version="1.1" id="Layer_1" xmlns="http://www.w3.org/2000/svg" xmlns:xlink="http://www.w3.org/1999/xlink" x="0px" y="0px"
	 viewBox="0 0 30 30" style="enable-background:new 0 0 30 30;" xml:space="preserve">
<style type="text/css">
	.st0{opacity:0.75;}
	.st1{fill:#FFFFFF;}
</style>
<g>
	<g class="st0">
		<path class="st1" d="M18.2,13.7c0.9,0,1.5-0.5,1.5-1.3c0-0.7-0.6-1.2-1.5-1.2c-0.9,0-1.5,0.6-1.5,1.2
			C16.7,13.1,17.2,13.7,18.2,13.7z"/>
	</g>
	<g class="st0">
		<path class="st1" d="M18.2,15.5c-1,0-1.8,0.5-1.8,1.3c0,0.8,0.7,1.3,1.8,1.3c1.1,0,1.8-0.6,1.8-1.3C20,16,19.2,15.5,18.2,15.5z"/>
	</g>
	<g class="st0">
		<path class="st1" d="M15,0C6.7,0,0,6.7,0,15c0,8.3,6.7,15,15,15s15-6.7,15-15C30,6.7,23.3,0,15,0z M12.1,19.9H9.8v-8.2l-1.8,0.5
			l-0.5-1.9l3-0.9h1.6V19.9z M18.2,20c-2.3,0-4-1.2-4-3c0-1.3,0.6-2,1.7-2.5c-0.8-0.5-1.3-1.2-1.3-2.3c0-1.6,1.5-2.9,3.7-2.9
			c2.2,0,3.7,1.3,3.7,2.9c0,1.1-0.5,1.8-1.3,2.3c1.1,0.6,1.7,1.2,1.7,2.5C22.2,18.9,20.5,20,18.2,20z"/>
	</g>
</g>
</svg>
