<?xml version="1.0" encoding="utf-8"?>
<!-- Generator: Adobe Illustrator 19.1.0, SVG Export Plug-In . SVG Version: 6.00 Build 0)  -->
<!DOCTYPE svg PUBLIC "-//W3C//DTD SVG 1.1//EN" "http://www.w3.org/Graphics/SVG/1.1/DTD/svg11.dtd">
<svg version="1.1" id="Layer_1" xmlns="http://www.w3.org/2000/svg" xmlns:xlink="http://www.w3.org/1999/xlink" x="0px" y="0px"
	 viewBox="0 0 30 30" style="enable-background:new 0 0 30 30;" xml:space="preserve">
<style type="text/css">
	.st0{opacity:0.75;}
	.st1{fill:#FFFFFF;}
</style>
<g>
	<g class="st0">
		<path class="st1" d="M15,11.2c-1.1,0-1.8,0.7-1.8,1.6s0.7,1.6,1.8,1.6s1.8-0.7,1.8-1.6C16.8,11.8,16.1,11.2,15,11.2z"/>
	</g>
	<g class="st0">
		<path class="st1" d="M15,0C6.7,0,0,6.7,0,15c0,8.3,6.7,15,15,15s15-6.7,15-15C30,6.7,23.3,0,15,0z M14.6,20.1
			c-1.5,0-2.6-0.5-3.4-1.2l1.2-1.8c0.8,0.6,1.4,0.9,2.3,0.9c1.3,0,2-1,2.1-2.4c-0.5,0.4-1.2,0.7-2.1,0.7c-2.3,0-3.8-1.3-3.8-3.4
			c0-2.1,1.6-3.7,4-3.7c1.4,0,2.2,0.3,3,1.1c0.8,0.8,1.2,1.9,1.2,4C19.2,17.7,17.5,20.1,14.6,20.1z"/>
	</g>
</g>
</svg>
