<?xml version="1.0" encoding="utf-8"?>
<!-- Generator: Adobe Illustrator 19.1.0, SVG Export Plug-In . SVG Version: 6.00 Build 0)  -->
<!DOCTYPE svg PUBLIC "-//W3C//DTD SVG 1.1//EN" "http://www.w3.org/Graphics/SVG/1.1/DTD/svg11.dtd">
<svg version="1.1" id="Layer_1" xmlns="http://www.w3.org/2000/svg" xmlns:xlink="http://www.w3.org/1999/xlink" x="0px" y="0px"
	 viewBox="0 0 40 40" style="enable-background:new 0 0 40 40;" xml:space="preserve">
<style type="text/css">
	.st0{opacity:0.8;}
	.st1{fill:#FFFFFF;}
</style>
<g class="st0">
	<path class="st1" d="M5,6.3v-5C5,0.6,5.6,0,6.3,0c0.7,0,1.2,0.6,1.2,1.3v5c0,0.7-0.6,1.2-1.2,1.2C5.6,7.5,5,6.9,5,6.3z M26.3,7.5
		c0.7,0,1.3-0.6,1.3-1.2v-5c0-0.7-0.6-1.3-1.3-1.3C25.6,0,25,0.6,25,1.3v5C25,6.9,25.6,7.5,26.3,7.5z M40,30c0,5.5-4.5,10-10,10
		c-5.5,0-10-4.5-10-10c0-5.5,4.5-10,10-10C35.5,20,40,24.5,40,30z M37.5,30c0-4.1-3.4-7.5-7.5-7.5c-4.1,0-7.5,3.4-7.5,7.5
		c0,4.1,3.4,7.5,7.5,7.5C34.1,37.5,37.5,34.1,37.5,30z M10,15H5v5h5V15z M5,27.5h5v-5H5V27.5z M12.5,20h5v-5h-5V20z M12.5,27.5h5v-5
		h-5V27.5z M2.5,29.8V12.5H30v5h2.5V7.7c0-1.5-1.2-2.7-2.7-2.7h-1v1.3c0,1.4-1.1,2.5-2.5,2.5c-1.4,0-2.5-1.1-2.5-2.5V5h-15v1.3
		c0,1.4-1.1,2.5-2.5,2.5c-1.4,0-2.5-1.1-2.5-2.5V5h-1C1.2,5,0,6.2,0,7.7v22c0,1.5,1.2,2.7,2.7,2.7h14.8V30H2.7
		C2.6,30,2.5,29.9,2.5,29.8z M25,20v-5h-5v5H25z M33.7,30H30v-3.8c0-0.7-0.6-1.2-1.3-1.2s-1.2,0.6-1.2,1.2v5c0,0.7,0.6,1.3,1.2,1.3
		h5c0.7,0,1.3-0.6,1.3-1.3C35,30.6,34.4,30,33.7,30z"/>
</g>
</svg>
