<?xml version="1.0" encoding="utf-8"?>
<!-- Generator: Adobe Illustrator 19.1.0, SVG Export Plug-In . SVG Version: 6.00 Build 0)  -->
<!DOCTYPE svg PUBLIC "-//W3C//DTD SVG 1.1//EN" "http://www.w3.org/Graphics/SVG/1.1/DTD/svg11.dtd">
<svg version="1.1" id="Layer_1" xmlns="http://www.w3.org/2000/svg" xmlns:xlink="http://www.w3.org/1999/xlink" x="0px" y="0px"
	 viewBox="0 0 30 30" style="enable-background:new 0 0 30 30;" xml:space="preserve">
<style type="text/css">
	.st0{opacity:0.75;}
	.st1{fill:#FFFFFF;}
</style>
<g>
	<g class="st0">
		<path class="st1" d="M15.8,15.9V18c0.7-0.1,1.1-0.4,1.1-1C16.9,16.5,16.6,16.2,15.8,15.9z"/>
	</g>
	<g class="st0">
		<path class="st1" d="M15,0C6.7,0,0,6.7,0,15c0,8.3,6.7,15,15,15s15-6.7,15-15C30,6.7,23.3,0,15,0z M15.9,19.9v1.5h-1.6v-1.5
			c-1.3-0.2-2.5-0.7-3.5-1.4l1.2-1.7c0.8,0.6,1.6,1,2.4,1.2v-2.4c-2.2-0.6-3.2-1.4-3.2-3.2c0-1.7,1.3-2.8,3.1-3V8.5h1.6v0.9
			c1.1,0.1,2,0.5,2.8,1.1l-1,1.8c-0.6-0.4-1.2-0.7-1.9-0.9v2.3c2.3,0.6,3.3,1.6,3.3,3.2C19.1,18.6,17.8,19.6,15.9,19.9z"/>
	</g>
	<g class="st0">
		<path class="st1" d="M13.4,12.2c0,0.5,0.2,0.8,1,1.1v-2C13.7,11.4,13.4,11.7,13.4,12.2z"/>
	</g>
</g>
</svg>
