<?xml version="1.0" encoding="utf-8"?>
<!-- Generator: Adobe Illustrator 19.1.0, SVG Export Plug-In . SVG Version: 6.00 Build 0)  -->
<!DOCTYPE svg PUBLIC "-//W3C//DTD SVG 1.1//EN" "http://www.w3.org/Graphics/SVG/1.1/DTD/svg11.dtd">
<svg version="1.1" id="Layer_1" xmlns="http://www.w3.org/2000/svg" xmlns:xlink="http://www.w3.org/1999/xlink" x="0px" y="0px"
	 viewBox="0 0 300 100" style="enable-background:new 0 0 300 100;" xml:space="preserve">
<style type="text/css">
	.st0{fill:#B3B3B3;}
	.st1{fill:#CCCCCC;}
	.st2{fill:#D7D7D7;}
</style>
<g id="XMLID_643_">
	<path class="st0" d="M5,8.3C4.5,8,4.2,7.8,3.6,7.8c-0.9,0-1.3,0.7-1.4,1.6C2.5,9.2,2.9,9,3.6,9C5,9,6.1,9.7,6.1,11.2
		c0,1.4-1.1,2.4-2.7,2.4c-0.9,0-1.5-0.3-2-0.8c-0.5-0.5-0.8-1.3-0.8-2.7c0-2.2,1-3.8,3.1-3.8c0.9,0,1.6,0.3,2.2,0.8L5,8.3z
		 M3.3,10.2c-0.8,0-1.2,0.4-1.2,1c0,0.6,0.5,1,1.2,1s1.2-0.4,1.2-1C4.5,10.7,4.1,10.2,3.3,10.2z"/>
	<path class="st0" d="M10.4,13.5v-0.6c-0.4,0.4-0.9,0.7-1.6,0.7C7.8,13.6,7,13,7,12v0c0-1.2,0.9-1.7,2.2-1.7c0.5,0,0.9,0.1,1.3,0.2
		v-0.1c0-0.6-0.4-1-1.1-1c-0.6,0-1,0.1-1.5,0.3L7.4,8.5C8,8.3,8.6,8.1,9.5,8.1c1.7,0,2.4,0.9,2.4,2.3v3.1H10.4z M10.5,11.3
		c-0.3-0.1-0.6-0.2-1-0.2c-0.6,0-1,0.3-1,0.7v0c0,0.4,0.3,0.6,0.8,0.6c0.7,0,1.2-0.4,1.2-0.9V11.3z"/>
	<path class="st0" d="M19.9,13.5v-3c0-0.7-0.3-1.1-0.9-1.1c-0.6,0-0.9,0.4-0.9,1.1v3h-1.5v-3c0-0.7-0.3-1.1-0.9-1.1
		c-0.6,0-0.9,0.4-0.9,1.1v3h-1.5V8.1h1.5v0.8C15.1,8.5,15.5,8,16.3,8c0.7,0,1.2,0.3,1.5,0.8c0.5-0.5,1-0.8,1.8-0.8
		c1.1,0,1.8,0.7,1.8,2v3.5H19.9z"/>
</g>
<g id="XMLID_641_">
	<path class="st0" d="M138.1,6.5h1v7h-1.5V8l-1.2,0.3l-0.3-1.3L138.1,6.5z"/>
	<path class="st0" d="M141.7,8.7l-1.1-0.9c0.7-0.9,1.4-1.4,2.6-1.4c1.5,0,2.4,0.9,2.4,2.2c0,1.2-0.6,1.8-1.8,2.7l-1.1,0.9h3v1.3
		h-5.2v-1.2l2.3-1.9c0.9-0.7,1.2-1.1,1.2-1.7c0-0.6-0.4-0.9-0.9-0.9C142.6,7.8,142.2,8.1,141.7,8.7z"/>
	<path class="st0" d="M150.1,13.6c-0.8,0-1.3-0.4-1.7-0.8v2.3h-1.5v-7h1.5v0.8c0.4-0.5,0.9-0.9,1.7-0.9c1.2,0,2.4,1,2.4,2.8v0
		C152.6,12.6,151.4,13.6,150.1,13.6z M151.1,10.8c0-0.9-0.6-1.5-1.3-1.5s-1.3,0.6-1.3,1.5v0c0,0.9,0.6,1.5,1.3,1.5
		S151.1,11.7,151.1,10.8L151.1,10.8z"/>
	<path class="st0" d="M160.4,13.5v-3c0-0.7-0.3-1.1-0.9-1.1s-0.9,0.4-0.9,1.1v3H157v-3c0-0.7-0.3-1.1-0.9-1.1s-0.9,0.4-0.9,1.1v3
		h-1.5V8.1h1.5v0.8c0.4-0.4,0.8-0.9,1.6-0.9c0.7,0,1.2,0.3,1.5,0.8c0.5-0.5,1-0.8,1.8-0.8c1.1,0,1.8,0.7,1.8,2v3.5H160.4z"/>
</g>
<g id="XMLID_639_">
	<path class="st0" d="M281.1,8.3c-0.5-0.3-0.8-0.6-1.4-0.6c-0.9,0-1.3,0.7-1.4,1.6c0.3-0.2,0.8-0.4,1.4-0.4c1.4,0,2.5,0.8,2.5,2.2
		c0,1.4-1.1,2.4-2.7,2.4c-0.9,0-1.5-0.3-2-0.8c-0.5-0.5-0.8-1.3-0.8-2.7c0-2.2,1-3.8,3.1-3.8c0.9,0,1.6,0.3,2.2,0.8L281.1,8.3z
		 M279.4,10.2c-0.8,0-1.2,0.4-1.2,1c0,0.6,0.5,1,1.2,1s1.2-0.4,1.2-1C280.7,10.7,280.2,10.2,279.4,10.2z"/>
	<path class="st0" d="M286.6,13.6c-0.8,0-1.3-0.4-1.7-0.8v2.3h-1.5v-7h1.5v0.8c0.4-0.5,0.9-0.9,1.7-0.9c1.3,0,2.4,1,2.4,2.8v0
		C289.1,12.6,287.9,13.6,286.6,13.6z M287.5,10.8c0-0.9-0.6-1.5-1.3-1.5c-0.7,0-1.3,0.6-1.3,1.5v0c0,0.9,0.6,1.5,1.3,1.5
		C286.9,12.3,287.5,11.7,287.5,10.8L287.5,10.8z"/>
	<path class="st0" d="M296.8,13.5v-3c0-0.7-0.3-1.1-0.9-1.1s-0.9,0.4-0.9,1.1v3h-1.5v-3c0-0.7-0.3-1.1-0.9-1.1s-0.9,0.4-0.9,1.1v3
		h-1.5V8.1h1.5v0.8c0.4-0.4,0.8-0.9,1.6-0.9c0.7,0,1.2,0.3,1.5,0.8c0.5-0.5,1-0.8,1.8-0.8c1.1,0,1.8,0.7,1.8,2v3.5H296.8z"/>
</g>
<rect y="20" class="st1" width="1" height="80"/>
<rect x="49" y="20" class="st1" width="1" height="80"/>
<rect x="99" y="20" class="st1" width="1" height="80"/>
<rect x="149" y="20" class="st1" width="1" height="80"/>
<rect x="199" y="20" class="st1" width="1" height="80"/>
<rect x="249" y="20" class="st1" width="1" height="80"/>
<rect x="299" y="20" class="st1" width="1" height="80"/>
<rect x="24" y="80" class="st2" width="1" height="20"/>
<rect x="74" y="80" class="st2" width="1" height="20"/>
<rect x="124" y="80" class="st2" width="1" height="20"/>
<rect x="174" y="80" class="st2" width="1" height="20"/>
<rect x="224" y="80" class="st2" width="1" height="20"/>
<rect x="274" y="80" class="st2" width="1" height="20"/>
</svg>
