<?xml version="1.0" encoding="utf-8"?>
<!-- Generator: Adobe Illustrator 21.0.0, SVG Export Plug-In . SVG Version: 6.00 Build 0)  -->
<svg version="1.1" id="Layer_1" xmlns="http://www.w3.org/2000/svg" xmlns:xlink="http://www.w3.org/1999/xlink" x="0px" y="0px"
	 viewBox="0 0 48 48" style="enable-background:new 0 0 48 48;" xml:space="preserve">
<style type="text/css">
	.st0{opacity:0.8;}
	.st1{fill:#FFFFFF;}
</style>
<g class="st0">
	<g>
		<rect x="14" y="38.1" class="st1" width="5" height="5"/>
		<rect x="14" y="30.6" class="st1" width="5" height="5"/>
		<path class="st1" d="M34,23.1c0.7,0,1.3-0.6,1.3-1.2v-5c0-0.7-0.6-1.3-1.3-1.3s-1.3,0.6-1.3,1.3v5C32.8,22.5,33.3,23.1,34,23.1z"
			/>
		<path class="st1" d="M14,23.1c0.6,0,1.2-0.5,1.2-1.2v-5c0-0.7-0.5-1.3-1.2-1.3s-1.3,0.6-1.3,1.3v5C12.8,22.5,13.3,23.1,14,23.1z"
			/>
		<rect x="21.5" y="38.1" class="st1" width="5" height="5"/>
		<path class="st1" d="M37.5,20.6L37.5,20.6h-1h-0.1v1.3c0,1.4-1.1,2.5-2.5,2.5c-1.4,0-2.5-1.1-2.5-2.5v-1.3h-0.1H16.5h-0.1v1.3
			c0,1.4-1.1,2.5-2.5,2.5c-1.4,0-2.5-1.1-2.5-2.5v-1.3h-0.1h-0.9h-0.1c-1.5,0-2.7,1.2-2.7,2.7v9.8v12.2c0,1.5,1.2,2.7,2.7,2.7h12.3
			h2.5h12.3c1.5,0,2.7-1.2,2.7-2.7V33.1v-9.8C40.2,21.8,39,20.6,37.5,20.6z M37.8,45.4c0,0.1-0.1,0.2-0.2,0.2H25.2h-2.5H10.5
			c-0.1,0-0.2-0.1-0.2-0.2V33.1v-5h27.5v5V45.4z"/>
		<rect x="29" y="30.6" class="st1" width="5" height="5"/>
		<rect x="29" y="38.1" class="st1" width="5" height="5"/>
		<rect x="21.5" y="30.6" class="st1" width="5" height="5"/>
	</g>
</g>
</svg>
