<?xml version="1.0" encoding="utf-8"?>
<!-- Generator: Adobe Illustrator 19.1.0, SVG Export Plug-In . SVG Version: 6.00 Build 0)  -->
<!DOCTYPE svg PUBLIC "-//W3C//DTD SVG 1.1//EN" "http://www.w3.org/Graphics/SVG/1.1/DTD/svg11.dtd">
<svg version="1.1" id="Layer_1" xmlns="http://www.w3.org/2000/svg" xmlns:xlink="http://www.w3.org/1999/xlink" x="0px" y="0px"
	 viewBox="0 0 40 40" style="enable-background:new 0 0 40 40;" xml:space="preserve">
<style type="text/css">
	.st0{opacity:0.8;}
	.st1{fill:#FFFFFF;}
</style>
<g class="st0">
	<path class="st1" d="M38.9,4.4H17.4C16.5,1.9,14,0,11.1,0C8.2,0,5.7,1.9,4.8,4.4H1.1C0.5,4.4,0,4.9,0,5.6v2.2
		c0,0.6,0.5,1.1,1.1,1.1h3.7c0.9,2.6,3.4,4.4,6.3,4.4c2.9,0,5.4-1.9,6.3-4.4h21.5c0.6,0,1.1-0.5,1.1-1.1V5.6
		C40,4.9,39.5,4.4,38.9,4.4z M11.1,10c-1.8,0-3.3-1.5-3.3-3.3s1.5-3.3,3.3-3.3c1.8,0,3.3,1.5,3.3,3.3S13,10,11.1,10z"/>
	<path class="st1" d="M38.9,17.8h-3.7c-0.9-2.6-3.4-4.4-6.3-4.4c-2.9,0-5.4,1.9-6.3,4.4H1.1c-0.6,0-1.1,0.5-1.1,1.1v2.2
		c0,0.6,0.5,1.1,1.1,1.1h21.5c0.9,2.6,3.4,4.4,6.3,4.4c2.9,0,5.4-1.9,6.3-4.4h3.7c0.6,0,1.1-0.5,1.1-1.1v-2.2
		C40,18.3,39.5,17.8,38.9,17.8z M28.9,23.3c-1.8,0-3.3-1.5-3.3-3.3s1.5-3.3,3.3-3.3c1.8,0,3.3,1.5,3.3,3.3S30.7,23.3,28.9,23.3z"/>
	<path class="st1" d="M38.9,31.1H21.8c-0.9-2.6-3.4-4.4-6.3-4.4c-2.9,0-5.4,1.9-6.3,4.4H1.1c-0.6,0-1.1,0.5-1.1,1.1v2.2
		c0,0.6,0.5,1.1,1.1,1.1h8.2c0.9,2.6,3.4,4.4,6.3,4.4c2.9,0,5.4-1.9,6.3-4.4h17.1c0.6,0,1.1-0.5,1.1-1.1v-2.2
		C40,31.6,39.5,31.1,38.9,31.1z M15.6,36.7c-1.8,0-3.3-1.5-3.3-3.3c0-1.8,1.5-3.3,3.3-3.3c1.8,0,3.3,1.5,3.3,3.3
		C18.9,35.2,17.4,36.7,15.6,36.7z"/>
</g>
</svg>
