<?xml version="1.0" encoding="utf-8"?>
<!-- Generator: Adobe Illustrator 19.1.0, SVG Export Plug-In . SVG Version: 6.00 Build 0)  -->
<!DOCTYPE svg PUBLIC "-//W3C//DTD SVG 1.1//EN" "http://www.w3.org/Graphics/SVG/1.1/DTD/svg11.dtd">
<svg version="1.1" id="Layer_1" xmlns="http://www.w3.org/2000/svg" xmlns:xlink="http://www.w3.org/1999/xlink" x="0px" y="0px"
	 viewBox="0 0 30 30" style="enable-background:new 0 0 30 30;" xml:space="preserve">
<style type="text/css">
	.st0{fill:#999999;}
</style>
<g>
	<g>
		<path class="st0" d="M21.7,2.5c2,0,3.8,0.8,5.2,2.2c2.9,2.9,2.9,7.6,0,10.5L14.9,27.1L3.2,15.2c-2.9-2.9-2.9-7.6,0-10.5
			c1.4-1.4,3.2-2.2,5.2-2.2c2,0,3.8,0.8,5.2,2.2c0.2,0.2,0.4,0.5,0.7,0.8L15,6.6l0.8-1.1c0.2-0.3,0.5-0.6,0.7-0.8
			C17.9,3.3,19.7,2.5,21.7,2.5 M21.7,1.5c-2.1,0-4.3,0.8-5.9,2.5c-0.3,0.3-0.5,0.6-0.8,0.9c-0.2-0.3-0.5-0.6-0.8-0.9
			c-1.6-1.6-3.8-2.5-5.9-2.5C6.2,1.5,4.1,2.3,2.4,4c-3.3,3.3-3.3,8.6,0,11.9l12.5,12.6l12.6-12.6c3.3-3.3,3.3-8.6,0-11.9
			C25.9,2.3,23.8,1.5,21.7,1.5L21.7,1.5z"/>
	</g>
</g>
</svg>
