<?xml version="1.0" encoding="utf-8"?>
<!-- Generator: Adobe Illustrator 19.1.0, SVG Export Plug-In . SVG Version: 6.00 Build 0)  -->
<!DOCTYPE svg PUBLIC "-//W3C//DTD SVG 1.1//EN" "http://www.w3.org/Graphics/SVG/1.1/DTD/svg11.dtd">
<svg version="1.1" id="Layer_1" xmlns="http://www.w3.org/2000/svg" xmlns:xlink="http://www.w3.org/1999/xlink" x="0px" y="0px"
	 viewBox="10 0 40 40" style="enable-background:new 10 0 40 40;" xml:space="preserve">
<style type="text/css">
	.st0{opacity:0.8;fill:#FFFFFF;enable-background:new    ;}
	.st1{opacity:0.4;fill:#FFFFFF;}
	.st2{opacity:0.8;fill:#FFFFFF;}
</style>
<path class="st0" d="M127.5,18.8l-8-8c2.3-2.9,3.7-6.6,3.7-10.6c0-9.6-7.8-17.3-17.3-17.3S88.5-9.4,88.5,0.2s7.8,17.3,17.3,17.3
	c4,0,7.7-1.4,10.6-3.7l8,8L127.5,18.8z M92.8,0.2c0-7.2,5.8-13,13-13s13,5.8,13,13s-5.8,13-13,13S92.8,7.3,92.8,0.2z"/>
<path class="st1" d="M40.6,9.4l3.5-3.5c-7.8-7.8-20.5-7.8-28.3,0l3.5,3.5C25.2,3.6,34.8,3.6,40.6,9.4z"/>
<path class="st2" d="M40.6,9.4C43.3,12.1,45,15.9,45,20c0,8.3-6.7,15-15,15c-8.3,0-15-6.7-15-15c0-4.1,1.7-7.9,4.4-10.6l-3.5-3.5
	C12.2,9.5,10,14.5,10,20c0,11,9,20,20,20c11,0,20-9,20-20c0-5.5-2.2-10.5-5.9-14.1L40.6,9.4z"/>
</svg>
